<?xml version="1.0" standalone="no"?>
<!DOCTYPE svg PUBLIC "-//W3C//DTD SVG 20010904//EN"
 "http://www.w3.org/TR/2001/REC-SVG-20010904/DTD/svg10.dtd">
<svg version="1.0" xmlns="http://www.w3.org/2000/svg"
 width="512.000000pt" height="512.000000pt" viewBox="0 0 512.000000 512.000000"
 preserveAspectRatio="xMidYMid meet">
<metadata>
Created by potrace 1.11, written by Peter Selinger 2001-2013
</metadata>
<g transform="translate(0.000000,512.000000) scale(0.100000,-0.100000)"
fill="#000000" stroke="none">
<path d="M2480 4468 c-81 -12 -176 -63 -241 -128 -82 -81 -126 -177 -133 -287
-9 -133 32 -247 122 -344 42 -46 50 -59 36 -60 -30 -1 -62 -7 -174 -35 -636
-158 -1146 -616 -1374 -1237 -36 -95 -85 -280 -91 -344 -3 -27 -10 -72 -19
-133 -2 -10 -21 -17 -62 -22 -113 -15 -244 -73 -331 -148 -89 -78 -170 -212
-198 -331 -17 -76 -12 -236 10 -309 62 -201 212 -353 420 -422 l70 -23 2045 0
2045 0 67 22 c204 64 362 222 423 423 25 82 28 240 6 320 -24 86 -43 129 -86
194 -97 147 -267 253 -435 272 -30 3 -58 9 -61 13 -4 3 -9 29 -13 56 -10 90
-16 124 -36 211 -114 488 -410 911 -840 1198 -169 113 -458 235 -646 272 -43
9 -86 17 -94 19 -8 2 -24 4 -34 4 -15 1 -8 13 33 56 171 181 169 454 -5 632
-109 111 -246 155 -404 131z m159 -372 c21 -22 26 -36 26 -77 0 -45 -4 -54
-33 -80 -24 -22 -42 -29 -72 -29 -30 0 -48 7 -72 29 -29 26 -33 36 -33 79 0
52 19 85 60 103 35 15 96 3 124 -25z m111 -780 c25 -4 70 -11 100 -17 30 -6
69 -13 85 -16 17 -3 77 -21 135 -40 526 -176 926 -610 1059 -1148 17 -69 35
-169 36 -200 0 -7 -542 -10 -1607 -11 -1511 0 -1606 1 -1603 17 2 9 7 39 10
66 4 26 14 75 22 108 8 33 16 67 18 75 8 39 57 172 85 228 16 34 30 64 30 66
0 12 98 168 144 230 226 304 565 526 931 611 67 15 89 19 215 34 66 8 278 6
340 -3z m1862 -1805 c122 -62 179 -175 153 -303 -20 -101 -98 -184 -196 -208
-31 -7 -630 -10 -2034 -8 -1956 3 -1991 3 -2030 23 -153 76 -203 269 -106 407
27 39 92 86 145 104 22 8 606 11 2026 10 l1995 -1 47 -24z"/>
</g>
</svg>
